<svg xmlns="http://www.w3.org/2000/svg" xmlns:xlink="http://www.w3.org/1999/xlink" contentStyleType="text/css" data-diagram-type="CLASS" height="451px" preserveAspectRatio="none" style="width:668px;height:451px;background:#FFFFFF;" version="1.1" viewBox="0 0 668 451" width="668px" zoomAndPan="magnify"><title>US042 - Sub-Domain Model (Import Bulk Weather Data)</title><defs/><g><g class="title" data-source-line="4"><text fill="#000000" font-family="sans-serif" font-size="14" font-weight="bold" lengthAdjust="spacing" textLength="403.9766" x="125.0117" y="23.5352">US042 - Sub-Domain Model (Import Bulk Weather Data)</text></g><!--cluster AirControlArea Aggregate--><g class="cluster" data-entity="AirControlArea Aggregate" data-source-line="6" data-uid="ent0002" id="cluster_AirControlArea Aggregate"><rect fill="none" height="124.11" rx="2.5" ry="2.5" style="stroke:#181818;stroke-width:1;" width="203" x="459" y="313.0383"/><text fill="#000000" font-family="sans-serif" font-size="14" font-weight="bold" lengthAdjust="spacing" textLength="187.2773" x="466.8613" y="328.5734">AirControlArea Aggregate</text></g><!--cluster WeatherData Aggregate--><g class="cluster" data-entity="WeatherData Aggregate" data-source-line="12" data-uid="ent0004" id="cluster_WeatherData Aggregate"><rect fill="none" height="400.9" rx="2.5" ry="2.5" style="stroke:#181818;stroke-width:1;" width="200" x="7" y="44.4883"/><text fill="#000000" font-family="sans-serif" font-size="14" font-weight="bold" lengthAdjust="spacing" textLength="171.0625" x="21.4688" y="60.0234">WeatherData Aggregate</text></g><!--class AirControlArea--><g class="entity" data-entity="AirControlArea" data-source-line="7" data-uid="ent0003" id="entity_AirControlArea"><rect fill="#F1F1F1" height="73.1094" rx="2.5" ry="2.5" style="stroke:#181818;stroke-width:0.5;" width="167.4238" x="476.29" y="348.0383"/><ellipse cx="491.29" cy="368.3488" fill="#ADD1B2" rx="11" ry="11" style="stroke:#181818;stroke-width:1;"/><path d="M494.2631,373.9919 Q493.6821,374.2907 493.0429,374.4401 Q492.4038,374.5896 491.6982,374.5896 Q489.1914,374.5896 487.8715,372.9377 Q486.5517,371.2858 486.5517,368.1647 Q486.5517,365.0354 487.8715,363.3835 Q489.1914,361.7316 491.6982,361.7316 Q492.4038,361.7316 493.0512,361.8811 Q493.6987,362.0305 494.2631,362.3293 L494.2631,365.052 Q493.6323,364.4709 493.0388,364.2011 Q492.4453,363.9313 491.8144,363.9313 Q490.4697,363.9313 489.7849,364.998 Q489.1001,366.0646 489.1001,368.1647 Q489.1001,370.2565 489.7849,371.3232 Q490.4697,372.3898 491.8144,372.3898 Q492.4453,372.3898 493.0388,372.1201 Q493.6323,371.8503 494.2631,371.2692 Z " fill="#000000"/><text fill="#000000" font-family="sans-serif" font-size="12" font-style="italic" lengthAdjust="spacing" textLength="139.4238" x="503.29" y="364.6398">&#171;entity, aggregate root&#187;</text><text fill="#000000" font-family="sans-serif" font-size="14" lengthAdjust="spacing" textLength="100.9395" x="522.5322" y="380.7062">AirControlArea</text><line style="stroke:#181818;stroke-width:0.5;" x1="477.29" x2="642.7138" y1="388.6594" y2="388.6594"/><text fill="#000000" font-family="sans-serif" font-size="14" lengthAdjust="spacing" textLength="63.8887" x="482.29" y="406.1945">areaCode</text><line style="stroke:#181818;stroke-width:0.5;" x1="477.29" x2="642.7138" y1="413.1477" y2="413.1477"/></g><!--class WeatherData--><g class="entity" data-entity="WeatherData" data-source-line="14" data-uid="ent0005" id="entity_WeatherData"><rect fill="#F1F1F1" height="155.5508" rx="2.5" ry="2.5" style="stroke:#181818;stroke-width:0.5;" width="167.4238" x="23.29" y="79.4883"/><ellipse cx="38.29" cy="99.7988" fill="#ADD1B2" rx="11" ry="11" style="stroke:#181818;stroke-width:1;"/><path d="M41.2631,105.4419 Q40.6821,105.7407 40.0429,105.8901 Q39.4038,106.0396 38.6982,106.0396 Q36.1914,106.0396 34.8715,104.3877 Q33.5517,102.7358 33.5517,99.6147 Q33.5517,96.4854 34.8715,94.8335 Q36.1914,93.1816 38.6982,93.1816 Q39.4038,93.1816 40.0512,93.3311 Q40.6987,93.4805 41.2631,93.7793 L41.2631,96.502 Q40.6323,95.9209 40.0388,95.6511 Q39.4453,95.3813 38.8144,95.3813 Q37.4697,95.3813 36.7849,96.448 Q36.1001,97.5146 36.1001,99.6147 Q36.1001,101.7065 36.7849,102.7732 Q37.4697,103.8398 38.8144,103.8398 Q39.4453,103.8398 40.0388,103.5701 Q40.6323,103.3003 41.2631,102.7192 Z " fill="#000000"/><text fill="#000000" font-family="sans-serif" font-size="12" font-style="italic" lengthAdjust="spacing" textLength="139.4238" x="50.29" y="96.0898">&#171;entity, aggregate root&#187;</text><text fill="#000000" font-family="sans-serif" font-size="14" lengthAdjust="spacing" textLength="86.1465" x="76.9287" y="112.1563">WeatherData</text><line style="stroke:#181818;stroke-width:0.5;" x1="24.29" x2="189.7138" y1="120.1094" y2="120.1094"/><text fill="#000000" font-family="sans-serif" font-size="14" lengthAdjust="spacing" textLength="29.5791" x="29.29" y="137.6445">date</text><text fill="#000000" font-family="sans-serif" font-size="14" lengthAdjust="spacing" textLength="83.6309" x="29.29" y="154.1328">temperature</text><text fill="#000000" font-family="sans-serif" font-size="14" lengthAdjust="spacing" textLength="73.0967" x="29.29" y="170.6211">windSpeed</text><text fill="#000000" font-family="sans-serif" font-size="14" lengthAdjust="spacing" textLength="94.1377" x="29.29" y="187.1094">windDirection</text><text fill="#000000" font-family="sans-serif" font-size="14" lengthAdjust="spacing" textLength="58.8301" x="29.29" y="203.5977">pressure</text><text fill="#000000" font-family="sans-serif" font-size="14" lengthAdjust="spacing" textLength="55.9795" x="29.29" y="220.0859">visibility</text><line style="stroke:#181818;stroke-width:0.5;" x1="24.29" x2="189.7138" y1="227.0391" y2="227.0391"/></g><!--class WeatherSource--><g class="entity" data-entity="WeatherSource" data-source-line="23" data-uid="ent0006" id="entity_WeatherSource"><rect fill="#F1F1F1" height="89.5977" rx="2.5" ry="2.5" style="stroke:#181818;stroke-width:0.5;" width="132.4883" x="30.76" y="339.7883"/><ellipse cx="45.76" cy="360.0988" fill="#ADD1B2" rx="11" ry="11" style="stroke:#181818;stroke-width:1;"/><path d="M48.7331,365.7419 Q48.1521,366.0407 47.5129,366.1901 Q46.8738,366.3396 46.1682,366.3396 Q43.6614,366.3396 42.3415,364.6877 Q41.0217,363.0358 41.0217,359.9147 Q41.0217,356.7854 42.3415,355.1335 Q43.6614,353.4816 46.1682,353.4816 Q46.8738,353.4816 47.5212,353.6311 Q48.1687,353.7805 48.7331,354.0793 L48.7331,356.802 Q48.1023,356.2209 47.5088,355.9511 Q46.9153,355.6813 46.2844,355.6813 Q44.9397,355.6813 44.2549,356.748 Q43.5701,357.8146 43.5701,359.9147 Q43.5701,362.0065 44.2549,363.0732 Q44.9397,364.1398 46.2844,364.1398 Q46.9153,364.1398 47.5088,363.8701 Q48.1023,363.6003 48.7331,363.0192 Z " fill="#000000"/><text fill="#000000" font-family="sans-serif" font-size="12" font-style="italic" lengthAdjust="spacing" textLength="82.7051" x="68.6516" y="356.3898">&#171;value object&#187;</text><text fill="#000000" font-family="sans-serif" font-size="14" lengthAdjust="spacing" textLength="100.4883" x="59.76" y="372.4562">WeatherSource</text><line style="stroke:#181818;stroke-width:0.5;" x1="31.76" x2="162.2483" y1="380.4094" y2="380.4094"/><text fill="#000000" font-family="sans-serif" font-size="14" lengthAdjust="spacing" textLength="56.7725" x="36.76" y="397.9445">provider</text><text fill="#000000" font-family="sans-serif" font-size="14" lengthAdjust="spacing" textLength="45.5137" x="36.76" y="414.4328">format</text><line style="stroke:#181818;stroke-width:0.5;" x1="31.76" x2="162.2483" y1="421.3859" y2="421.3859"/></g><g class="entity" data-entity="GMN9" data-source-line="33" data-uid="ent0010" id="entity_GMN9"><path d="M222.89,356.6283 L222.89,412.5599 A0,0 0 0 0 222.89,412.5599 L441.1053,412.5599 A0,0 0 0 0 441.1053,412.5599 L441.1053,366.6283 L431.1053,356.6283 L308.6,356.6283 L184.12,235.4883 L300.6,356.6283 L222.89,356.6283 A0,0 0 0 0 222.89,356.6283" fill="#FEFFDD" style="stroke:#181818;stroke-width:0.5;"/><path d="M431.1053,356.6283 L431.1053,366.6283 L441.1053,366.6283 L431.1053,356.6283" fill="#FEFFDD" style="stroke:#181818;stroke-width:0.5;"/><text fill="#000000" font-family="sans-serif" font-size="13" lengthAdjust="spacing" textLength="153.8101" x="228.89" y="374.1966">Unchanged from US041.</text><text fill="#000000" font-family="sans-serif" font-size="13" lengthAdjust="spacing" textLength="197.2153" x="228.89" y="389.5072">Created once per valid CSV line</text><text fill="#000000" font-family="sans-serif" font-size="13" lengthAdjust="spacing" textLength="123.6904" x="228.89" y="404.8177">during bulk import.</text></g><!--reverse link WeatherData to WeatherSource--><g class="link" data-entity-1="WeatherData" data-entity-2="WeatherSource" data-source-line="29" data-uid="lnk7" id="link_WeatherData_WeatherSource"><path codeLine="29" d="M103.0372,247.4764 C101.4972,282.1264 100.28,309.7783 98.96,339.3183" fill="none" id="WeatherData-backto-WeatherSource" style="stroke:#181818;stroke-width:1;"/><polygon fill="#181818" points="103.57,235.4883,99.3075,241.3048,103.0372,247.4764,107.2997,241.66,103.57,235.4883" style="stroke:#181818;stroke-width:1;"/><text fill="#000000" font-family="sans-serif" font-size="13" lengthAdjust="spacing" textLength="92.0029" x="103" y="286.1066">imported from</text><text fill="#000000" font-family="sans-serif" font-size="13" lengthAdjust="spacing" textLength="8.2202" x="94.9179" y="255.7053">1</text><text fill="#000000" font-family="sans-serif" font-size="13" lengthAdjust="spacing" textLength="8.2202" x="90.6759" y="329.159">1</text></g><!--link WeatherData to AirControlArea--><g class="link" data-entity-1="WeatherData" data-entity-2="AirControlArea" data-source-line="30" data-uid="lnk8" id="link_WeatherData_AirControlArea"><path codeLine="30" d="M191.04,186.1383 C264.27,212.0883 372.07,254.3283 459,305.0383 C479.92,317.2383 496.677,329.5002 514.377,343.9102" fill="none" id="WeatherData-to-AirControlArea" style="stroke:#181818;stroke-width:1;stroke-dasharray:7,7;"/><polygon fill="#181818" points="519.03,347.6983,514.5759,338.9141,515.1525,344.5415,509.5251,345.1181,519.03,347.6983" style="stroke:#181818;stroke-width:1;"/><text fill="#000000" font-family="sans-serif" font-size="13" lengthAdjust="spacing" textLength="78.3301" x="469.0995" y="278.6066">recorded for</text><text fill="#000000" font-family="sans-serif" font-size="13" lengthAdjust="spacing" textLength="132.209" x="442.16" y="293.9172">(by areaCode: String)</text><text fill="#000000" font-family="sans-serif" font-size="13" lengthAdjust="spacing" textLength="8.2202" x="198.6152" y="185.5569">1</text><text fill="#000000" font-family="sans-serif" font-size="13" lengthAdjust="spacing" textLength="8.2202" x="503.039" y="337.3865">1</text></g><!--SRC=[ZP91Rzim38Nl-XM4J-sm1EsmKn44o99B3xlCw7RPXROOHuii6XITeHlwtqTxcUkqG35T13_vwNqabOyXTIZOGZwWvvyXDR37cCdbwQIEcFD6LKBLAztNdChmY-36EGqQ2HxAcuyVO05bNorst698y9azHRYwRpiMXKzzFC8tGZsGm0uLhvthi3vYGr1iWcmvgN3S225icaQeGQK2LgilL2kc9j9w3RyTs1fPu8LdjQ9aA8_l0V-vGPXrSWqBxS-jOOt2atkQ8PpH1hAtycS0SyT_fNjJfm-bjYD1xULPiyxxiYFo5yekY244JfFQ2UKyDvv23bM81d2kx3LcoRtKPA0dZ3q1Lp_iqWkyJlWKFCaax5bQrETUpGikRWjujrYC-sN27HHX73bvs0ktnIlVShaUznSJDACLok878yltT5KzJXExWzBUNcgk2-SIMtShLkKMU3-VWx4-fFfWupg7Z-_oTcdwrYuQa3WPetKUh0_1mxRy2Z6aePM-7mAW6XxgtmgMZfA78Sxz0G00]--></g></svg>