<svg xmlns="http://www.w3.org/2000/svg" xmlns:xlink="http://www.w3.org/1999/xlink" contentStyleType="text/css" data-diagram-type="CLASS" height="949px" preserveAspectRatio="none" style="width:1372px;height:949px;background:#FFFFFF;" version="1.1" viewBox="0 0 1372 949" width="1372px" zoomAndPan="magnify"><title>Class Diagram - US075 Add a Pilot</title><defs/><g><g class="title" data-source-line="6"><text fill="#000000" font-family="sans-serif" font-size="14" font-weight="bold" lengthAdjust="spacing" textLength="251.918" x="553.041" y="23.5352">Class Diagram - US075 Add a Pilot</text></g><!--cluster Presentation--><g class="cluster" data-entity="Presentation" data-source-line="8" data-uid="ent0002" id="cluster_Presentation"><path d="M752.5,43.4883 L844.2334,43.4883 A3.75,3.75 0 0 1 846.7334,45.9883 L853.7334,65.9766 L923.5,65.9766 A2.5,2.5 0 0 1 926,68.4766 L926,172.9683 A2.5,2.5 0 0 1 923.5,175.4683 L752.5,175.4683 A2.5,2.5 0 0 1 750,172.9683 L750,45.9883 A2.5,2.5 0 0 1 752.5,43.4883" fill="none" style="stroke:#000000;stroke-width:1.5;"/><line style="stroke:#000000;stroke-width:1.5;" x1="750" x2="853.7334" y1="65.9766" y2="65.9766"/><text fill="#000000" font-family="sans-serif" font-size="14" font-weight="bold" lengthAdjust="spacing" textLength="90.7334" x="754" y="59.0234">Presentation</text></g><!--cluster Application--><g class="cluster" data-entity="Application" data-source-line="15" data-uid="ent0004" id="cluster_Application"><path d="M607.5,199.4683 L690.5107,199.4683 A3.75,3.75 0 0 1 693.0107,201.9683 L700.0107,221.9566 L1068.5,221.9566 A2.5,2.5 0 0 1 1071,224.4566 L1071,510.3183 A2.5,2.5 0 0 1 1068.5,512.8183 L607.5,512.8183 A2.5,2.5 0 0 1 605,510.3183 L605,201.9683 A2.5,2.5 0 0 1 607.5,199.4683" fill="none" style="stroke:#000000;stroke-width:1.5;"/><line style="stroke:#000000;stroke-width:1.5;" x1="605" x2="700.0107" y1="221.9566" y2="221.9566"/><text fill="#000000" font-family="sans-serif" font-size="14" font-weight="bold" lengthAdjust="spacing" textLength="82.0107" x="609" y="215.0034">Application</text></g><!--cluster Domain--><g class="cluster" data-entity="Domain" data-source-line="30" data-uid="ent0006" id="cluster_Domain"><path d="M8.5,536.8183 L65.0967,536.8183 A3.75,3.75 0 0 1 67.5967,539.3183 L74.5967,559.3066 L657.5,559.3066 A2.5,2.5 0 0 1 660,561.8066 L660,939.9283 A2.5,2.5 0 0 1 657.5,942.4283 L8.5,942.4283 A2.5,2.5 0 0 1 6,939.9283 L6,539.3183 A2.5,2.5 0 0 1 8.5,536.8183" fill="none" style="stroke:#000000;stroke-width:1.5;"/><line style="stroke:#000000;stroke-width:1.5;" x1="6" x2="74.5967" y1="559.3066" y2="559.3066"/><text fill="#000000" font-family="sans-serif" font-size="14" font-weight="bold" lengthAdjust="spacing" textLength="55.5967" x="10" y="552.3534">Domain</text></g><!--cluster Repository--><g class="cluster" data-entity="Repository" data-source-line="58" data-uid="ent0011" id="cluster_Repository"><path d="M686.5,578.0383 L765.1904,578.0383 A3.75,3.75 0 0 1 767.6904,580.5383 L774.6904,600.5266 L1362.5,600.5266 A2.5,2.5 0 0 1 1365,603.0266 L1365,732.6183 A2.5,2.5 0 0 1 1362.5,735.1183 L686.5,735.1183 A2.5,2.5 0 0 1 684,732.6183 L684,580.5383 A2.5,2.5 0 0 1 686.5,578.0383" fill="none" style="stroke:#000000;stroke-width:1.5;"/><line style="stroke:#000000;stroke-width:1.5;" x1="684" x2="774.6904" y1="600.5266" y2="600.5266"/><text fill="#000000" font-family="sans-serif" font-size="14" font-weight="bold" lengthAdjust="spacing" textLength="77.6904" x="688" y="593.5734">Repository</text></g><!--class AddPilotUI--><g class="entity" data-entity="AddPilotUI" data-source-line="9" data-uid="ent0003" id="entity_AddPilotUI"><rect fill="#F1F1F1" height="80.9766" rx="2.5" ry="2.5" style="stroke:#181818;stroke-width:0.5;" width="143.1064" x="766.45" y="78.4883"/><ellipse cx="799.6403" cy="94.4883" fill="#ADD1B2" rx="11" ry="11" style="stroke:#181818;stroke-width:1;"/><path d="M802.6134,100.1313 Q802.0324,100.4302 801.3932,100.5796 Q800.7541,100.729 800.0485,100.729 Q797.5417,100.729 796.2218,99.0771 Q794.902,97.4253 794.902,94.3042 Q794.902,91.1748 796.2218,89.5229 Q797.5417,87.8711 800.0485,87.8711 Q800.7541,87.8711 801.4015,88.0205 Q802.049,88.1699 802.6134,88.4688 L802.6134,91.1914 Q801.9826,90.6104 801.3891,90.3406 Q800.7956,90.0708 800.1647,90.0708 Q798.82,90.0708 798.1352,91.1375 Q797.4503,92.2041 797.4503,94.3042 Q797.4503,96.396 798.1352,97.4626 Q798.82,98.5293 800.1647,98.5293 Q800.7956,98.5293 801.3891,98.2595 Q801.9826,97.9897 802.6134,97.4087 Z " fill="#000000"/><text fill="#000000" font-family="sans-serif" font-size="14" lengthAdjust="spacing" textLength="70.6836" x="817.6826" y="99.7793">AddPilotUI</text><line style="stroke:#181818;stroke-width:0.5;" x1="767.45" x2="908.5564" y1="110.4883" y2="110.4883"/><line style="stroke:#181818;stroke-width:0.5;" x1="767.45" x2="908.5564" y1="118.4883" y2="118.4883"/><text fill="#000000" font-family="sans-serif" font-size="14" lengthAdjust="spacing" textLength="73.2607" x="772.45" y="136.0234">+doShow()</text><text fill="#000000" font-family="sans-serif" font-size="14" lengthAdjust="spacing" textLength="131.1064" x="772.45" y="152.5117">+headline() : String</text></g><!--class AddPilotController--><g class="entity" data-entity="AddPilotController" data-source-line="16" data-uid="ent0005" id="entity_AddPilotController"><rect fill="#F1F1F1" height="262.3477" rx="2.5" ry="2.5" style="stroke:#181818;stroke-width:0.5;" width="433.6611" x="621.17" y="234.4683"/><ellipse cx="771.1949" cy="250.4683" fill="#ADD1B2" rx="11" ry="11" style="stroke:#181818;stroke-width:1;"/><path d="M774.168,256.1113 Q773.587,256.4102 772.9478,256.5596 Q772.3087,256.709 771.6031,256.709 Q769.0963,256.709 767.7764,255.0571 Q766.4566,253.4053 766.4566,250.2842 Q766.4566,247.1548 767.7764,245.5029 Q769.0963,243.8511 771.6031,243.8511 Q772.3087,243.8511 772.9561,244.0005 Q773.6036,244.1499 774.168,244.4488 L774.168,247.1714 Q773.5372,246.5904 772.9437,246.3206 Q772.3502,246.0508 771.7193,246.0508 Q770.3746,246.0508 769.6898,247.1175 Q769.005,248.1841 769.005,250.2842 Q769.005,252.376 769.6898,253.4426 Q770.3746,254.5093 771.7193,254.5093 Q772.3502,254.5093 772.9437,254.2395 Q773.5372,253.9697 774.168,253.3887 Z " fill="#000000"/><text fill="#000000" font-family="sans-serif" font-size="14" lengthAdjust="spacing" textLength="125.1113" x="791.6949" y="255.7593">AddPilotController</text><line style="stroke:#181818;stroke-width:0.5;" x1="622.17" x2="1053.8311" y1="266.4683" y2="266.4683"/><text fill="#000000" font-family="sans-serif" font-size="14" lengthAdjust="spacing" textLength="195.6377" x="627.17" y="284.0034">-authz: AuthorizationService</text><text fill="#000000" font-family="sans-serif" font-size="14" lengthAdjust="spacing" textLength="183.5586" x="627.17" y="300.4917">-pilotRepo: PilotRepository</text><text fill="#000000" font-family="sans-serif" font-size="14" lengthAdjust="spacing" textLength="182.8682" x="627.17" y="316.98">-userRepo: UserRepository</text><text fill="#000000" font-family="sans-serif" font-size="14" lengthAdjust="spacing" textLength="257.2432" x="627.17" y="333.4683">-modelRepo: AircraftModelRepository</text><text fill="#000000" font-family="sans-serif" font-size="14" lengthAdjust="spacing" textLength="334.3867" x="627.17" y="349.9566">-companyRepo: AirTransportCompanyRepository</text><text fill="#000000" font-family="sans-serif" font-size="14" lengthAdjust="spacing" textLength="289.7275" x="627.17" y="366.4448">-collaboratorRepo: CollaboratorRepository</text><line style="stroke:#181818;stroke-width:0.5;" x1="622.17" x2="1053.8311" y1="373.398" y2="373.398"/><text fill="#000000" font-family="sans-serif" font-size="14" lengthAdjust="spacing" textLength="313.4619" x="627.17" y="390.9331">+allAircraftModels() : Iterable&lt;AircraftModel&gt;</text><text fill="#000000" font-family="sans-serif" font-size="14" lengthAdjust="spacing" textLength="362.4346" x="627.17" y="407.4214">+addPilot(username, password, firstName, lastName,</text><text fill="#000000" font-family="sans-serif" font-size="14" lengthAdjust="spacing" textLength="275.0986" x="627.17" y="423.9097">emailStr, phoneNumber, position, email,</text><text fill="#000000" font-family="sans-serif" font-size="14" lengthAdjust="spacing" textLength="279.4463" x="627.17" y="440.398">securityClearance, skillsAssessmentDate,</text><text fill="#000000" font-family="sans-serif" font-size="14" lengthAdjust="spacing" textLength="215.0449" x="627.17" y="456.8863">certifiedAircraftModelIds) : Pilot</text><text fill="#000000" font-family="sans-serif" font-size="14" lengthAdjust="spacing" textLength="421.6611" x="627.17" y="473.3745">-authenticatedCollaboratorCompany() : AirTransportCompany</text><text fill="#000000" font-family="sans-serif" font-size="14" lengthAdjust="spacing" textLength="175.6494" x="627.17" y="489.8628">-createPilotUser(...) : User</text></g><!--class Pilot--><g class="entity" data-entity="Pilot" data-source-line="32" data-uid="ent0007" id="entity_Pilot"><rect fill="#F1F1F1" height="188.5273" rx="2.5" ry="2.5" style="stroke:#181818;stroke-width:0.5;" width="397.5264" x="216.24" y="571.8183"/><ellipse cx="343.0413" cy="592.1288" fill="#ADD1B2" rx="11" ry="11" style="stroke:#181818;stroke-width:1;"/><path d="M346.0144,597.7719 Q345.4334,598.0707 344.7942,598.2201 Q344.155,598.3696 343.4495,598.3696 Q340.9426,598.3696 339.6228,596.7177 Q338.303,595.0658 338.303,591.9447 Q338.303,588.8154 339.6228,587.1635 Q340.9426,585.5116 343.4495,585.5116 Q344.155,585.5116 344.8025,585.6611 Q345.45,585.8105 346.0144,586.1093 L346.0144,588.832 Q345.3836,588.2509 344.79,587.9811 Q344.1965,587.7113 343.5657,587.7113 Q342.221,587.7113 341.5361,588.778 Q340.8513,589.8446 340.8513,591.9447 Q340.8513,594.0365 341.5361,595.1032 Q342.221,596.1698 343.5657,596.1698 Q344.1965,596.1698 344.79,595.9001 Q345.3836,595.6303 346.0144,595.0492 Z " fill="#000000"/><text fill="#000000" font-family="sans-serif" font-size="12" font-style="italic" lengthAdjust="spacing" textLength="139.4238" x="361.5413" y="588.4198">&#171;entity, aggregate root&#187;</text><text fill="#000000" font-family="sans-serif" font-size="14" lengthAdjust="spacing" textLength="29.668" x="416.4192" y="604.4863">Pilot</text><line style="stroke:#181818;stroke-width:0.5;" x1="217.24" x2="612.7664" y1="612.4394" y2="612.4394"/><text fill="#000000" font-family="sans-serif" font-size="14" lengthAdjust="spacing" textLength="63.3008" x="222.24" y="629.9745">-id: Long</text><text fill="#000000" font-family="sans-serif" font-size="14" lengthAdjust="spacing" textLength="110.4688" x="222.24" y="646.4628">-active: boolean</text><line style="stroke:#181818;stroke-width:0.5;" x1="217.24" x2="612.7664" y1="653.4159" y2="653.4159"/><text fill="#000000" font-family="sans-serif" font-size="14" lengthAdjust="spacing" textLength="385.5264" x="222.24" y="670.9511">+Pilot(user, companyIataCode, certifiedAircraftModelIds)</text><text fill="#000000" font-family="sans-serif" font-size="14" lengthAdjust="spacing" textLength="140.1436" x="222.24" y="687.4394">+isActive() : boolean</text><text fill="#000000" font-family="sans-serif" font-size="14" lengthAdjust="spacing" textLength="324.1465" x="222.24" y="703.9277">+isCertifiedFor(aircraftModelId: Long) : boolean</text><text fill="#000000" font-family="sans-serif" font-size="14" lengthAdjust="spacing" textLength="277.375" x="222.24" y="720.4159">+certifiedAircraftModelIds() : Set&lt;Long&gt;</text><text fill="#000000" font-family="sans-serif" font-size="14" lengthAdjust="spacing" textLength="221.6416" x="222.24" y="736.9042">+companyIataCode() : IATACode</text><text fill="#000000" font-family="sans-serif" font-size="14" lengthAdjust="spacing" textLength="93.2422" x="222.24" y="753.3925">+user() : User</text></g><!--class User--><g class="entity" data-entity="User" data-source-line="43" data-uid="ent0008" id="entity_User"><rect fill="#F1F1F1" height="106.0859" rx="2.5" ry="2.5" style="stroke:#181818;stroke-width:0.5;" width="274.2471" x="21.88" y="820.3383"/><ellipse cx="87.0416" cy="840.6488" fill="#ADD1B2" rx="11" ry="11" style="stroke:#181818;stroke-width:1;"/><path d="M90.0148,846.2919 Q89.4337,846.5907 88.7946,846.7401 Q88.1554,846.8896 87.4498,846.8896 Q84.943,846.8896 83.6232,845.2377 Q82.3033,843.5858 82.3033,840.4647 Q82.3033,837.3354 83.6232,835.6835 Q84.943,834.0316 87.4498,834.0316 Q88.1554,834.0316 88.8029,834.1811 Q89.4503,834.3305 90.0148,834.6293 L90.0148,837.352 Q89.3839,836.7709 88.7904,836.5011 Q88.1969,836.2313 87.566,836.2313 Q86.2213,836.2313 85.5365,837.298 Q84.8517,838.3646 84.8517,840.4647 Q84.8517,842.5565 85.5365,843.6232 Q86.2213,844.6898 87.566,844.6898 Q88.1969,844.6898 88.7904,844.4201 Q89.3839,844.1503 90.0148,843.5692 Z " fill="#000000"/><text fill="#000000" font-family="sans-serif" font-size="12" font-style="italic" lengthAdjust="spacing" textLength="139.4238" x="105.5416" y="836.9398">&#171;entity, aggregate root&#187;</text><text fill="#000000" font-family="sans-serif" font-size="14" lengthAdjust="spacing" textLength="30.3652" x="160.0709" y="853.0063">User</text><line style="stroke:#181818;stroke-width:0.5;" x1="22.88" x2="295.1271" y1="860.9594" y2="860.9594"/><text fill="#000000" font-family="sans-serif" font-size="14" lengthAdjust="spacing" textLength="153.959" x="27.88" y="878.4945">-phoneNumber: String</text><text fill="#000000" font-family="sans-serif" font-size="14" lengthAdjust="spacing" textLength="112.0957" x="27.88" y="894.9828">-position: String</text><line style="stroke:#181818;stroke-width:0.5;" x1="22.88" x2="295.1271" y1="901.9359" y2="901.9359"/><text fill="#000000" font-family="sans-serif" font-size="14" lengthAdjust="spacing" textLength="262.2471" x="27.88" y="919.4711">+updateContact(email, phoneNumber)</text></g><!--class IATACode--><g class="entity" data-entity="IATACode" data-source-line="49" data-uid="ent0009" id="entity_IATACode"><rect fill="#F1F1F1" height="73.1094" rx="2.5" ry="2.5" style="stroke:#181818;stroke-width:0.5;" width="110.7051" x="330.65" y="836.8283"/><ellipse cx="345.65" cy="857.1388" fill="#ADD1B2" rx="11" ry="11" style="stroke:#181818;stroke-width:1;"/><path d="M348.6231,862.7819 Q348.0421,863.0807 347.4029,863.2301 Q346.7638,863.3796 346.0582,863.3796 Q343.5514,863.3796 342.2315,861.7277 Q340.9117,860.0758 340.9117,856.9547 Q340.9117,853.8254 342.2315,852.1735 Q343.5514,850.5216 346.0582,850.5216 Q346.7638,850.5216 347.4112,850.6711 Q348.0587,850.8205 348.6231,851.1193 L348.6231,853.842 Q347.9923,853.2609 347.3988,852.9911 Q346.8053,852.7213 346.1744,852.7213 Q344.8297,852.7213 344.1449,853.788 Q343.4601,854.8546 343.4601,856.9547 Q343.4601,859.0465 344.1449,860.1132 Q344.8297,861.1798 346.1744,861.1798 Q346.8053,861.1798 347.3988,860.9101 Q347.9923,860.6403 348.6231,860.0592 Z " fill="#000000"/><text fill="#000000" font-family="sans-serif" font-size="12" font-style="italic" lengthAdjust="spacing" textLength="82.7051" x="357.65" y="853.4298">&#171;value object&#187;</text><text fill="#000000" font-family="sans-serif" font-size="14" lengthAdjust="spacing" textLength="67.1016" x="365.4518" y="869.4963">IATACode</text><line style="stroke:#181818;stroke-width:0.5;" x1="331.65" x2="440.3551" y1="877.4494" y2="877.4494"/><text fill="#000000" font-family="sans-serif" font-size="14" lengthAdjust="spacing" textLength="89.3115" x="336.65" y="894.9845">-code: String</text><line style="stroke:#181818;stroke-width:0.5;" x1="331.65" x2="440.3551" y1="901.9377" y2="901.9377"/></g><!--class AircraftModel--><g class="entity" data-entity="AircraftModel" data-source-line="53" data-uid="ent0010" id="entity_AircraftModel"><rect fill="#F1F1F1" height="73.1094" rx="2.5" ry="2.5" style="stroke:#181818;stroke-width:0.5;" width="167.4238" x="476.29" y="836.8283"/><ellipse cx="491.29" cy="857.1388" fill="#ADD1B2" rx="11" ry="11" style="stroke:#181818;stroke-width:1;"/><path d="M494.2631,862.7819 Q493.6821,863.0807 493.0429,863.2301 Q492.4038,863.3796 491.6982,863.3796 Q489.1914,863.3796 487.8715,861.7277 Q486.5517,860.0758 486.5517,856.9547 Q486.5517,853.8254 487.8715,852.1735 Q489.1914,850.5216 491.6982,850.5216 Q492.4038,850.5216 493.0512,850.6711 Q493.6987,850.8205 494.2631,851.1193 L494.2631,853.842 Q493.6323,853.2609 493.0388,852.9911 Q492.4453,852.7213 491.8144,852.7213 Q490.4697,852.7213 489.7849,853.788 Q489.1001,854.8546 489.1001,856.9547 Q489.1001,859.0465 489.7849,860.1132 Q490.4697,861.1798 491.8144,861.1798 Q492.4453,861.1798 493.0388,860.9101 Q493.6323,860.6403 494.2631,860.0592 Z " fill="#000000"/><text fill="#000000" font-family="sans-serif" font-size="12" font-style="italic" lengthAdjust="spacing" textLength="139.4238" x="503.29" y="853.4298">&#171;entity, aggregate root&#187;</text><text fill="#000000" font-family="sans-serif" font-size="14" lengthAdjust="spacing" textLength="91.7656" x="527.1191" y="869.4963">AircraftModel</text><line style="stroke:#181818;stroke-width:0.5;" x1="477.29" x2="642.7138" y1="877.4494" y2="877.4494"/><text fill="#000000" font-family="sans-serif" font-size="14" lengthAdjust="spacing" textLength="138.2021" x="482.29" y="894.9845">-modelName: String</text><line style="stroke:#181818;stroke-width:0.5;" x1="477.29" x2="642.7138" y1="901.9377" y2="901.9377"/></g><!--class PilotRepository--><g class="entity" data-entity="PilotRepository" data-source-line="59" data-uid="ent0012" id="entity_PilotRepository"><rect fill="#F1F1F1" height="106.0859" rx="2.5" ry="2.5" style="stroke:#181818;stroke-width:0.5;" width="275.6006" x="700.2" y="613.0383"/><ellipse cx="782.8533" cy="633.3488" fill="#B4A7E5" rx="11" ry="11" style="stroke:#181818;stroke-width:1;"/><path d="M778.7811,629.114 L778.7811,626.9558 L786.1604,626.9558 L786.1604,629.114 L783.6951,629.114 L783.6951,637.1906 L786.1604,637.1906 L786.1604,639.3488 L778.7811,639.3488 L778.7811,637.1906 L781.2464,637.1906 L781.2464,629.114 Z " fill="#000000"/><text fill="#000000" font-family="sans-serif" font-size="12" font-style="italic" lengthAdjust="spacing" textLength="63.4453" x="822.5276" y="629.6398">&#171;interface&#187;</text><text fill="#000000" font-family="sans-serif" font-size="14" font-style="italic" lengthAdjust="spacing" textLength="101.7939" x="803.3533" y="645.7063">PilotRepository</text><line style="stroke:#181818;stroke-width:0.5;" x1="701.2" x2="974.8006" y1="653.6594" y2="653.6594"/><line style="stroke:#181818;stroke-width:0.5;" x1="701.2" x2="974.8006" y1="661.6594" y2="661.6594"/><text fill="#000000" font-family="sans-serif" font-size="14" lengthAdjust="spacing" textLength="162.374" x="706.2" y="679.1945">+save(pilot: Pilot) : Pilot</text><text fill="#000000" font-family="sans-serif" font-size="14" lengthAdjust="spacing" textLength="181.084" x="706.2" y="695.6828">+findAll() : Iterable&lt;Pilot&gt;</text><text fill="#000000" font-family="sans-serif" font-size="14" lengthAdjust="spacing" textLength="263.6006" x="706.2" y="712.1711">+ofIdentity(id: Long) : Optional&lt;Pilot&gt;</text></g><!--class AircraftModelRepository--><g class="entity" data-entity="AircraftModelRepository" data-source-line="65" data-uid="ent0013" id="entity_AircraftModelRepository"><rect fill="#F1F1F1" height="89.5977" rx="2.5" ry="2.5" style="stroke:#181818;stroke-width:0.5;" width="337.6982" x="1011.15" y="621.2783"/><ellipse cx="1093.8033" cy="641.5888" fill="#B4A7E5" rx="11" ry="11" style="stroke:#181818;stroke-width:1;"/><path d="M1089.7311,637.354 L1089.7311,635.1958 L1097.1104,635.1958 L1097.1104,637.354 L1094.6451,637.354 L1094.6451,645.4306 L1097.1104,645.4306 L1097.1104,647.5888 L1089.7311,647.5888 L1089.7311,645.4306 L1092.1964,645.4306 L1092.1964,637.354 Z " fill="#000000"/><text fill="#000000" font-family="sans-serif" font-size="12" font-style="italic" lengthAdjust="spacing" textLength="63.4453" x="1164.5265" y="637.8798">&#171;interface&#187;</text><text fill="#000000" font-family="sans-serif" font-size="14" font-style="italic" lengthAdjust="spacing" textLength="163.8916" x="1114.3033" y="653.9463">AircraftModelRepository</text><line style="stroke:#181818;stroke-width:0.5;" x1="1012.15" x2="1347.8482" y1="661.8994" y2="661.8994"/><line style="stroke:#181818;stroke-width:0.5;" x1="1012.15" x2="1347.8482" y1="669.8994" y2="669.8994"/><text fill="#000000" font-family="sans-serif" font-size="14" lengthAdjust="spacing" textLength="325.6982" x="1017.15" y="687.4345">+ofIdentity(id: Long) : Optional&lt;AircraftModel&gt;</text><text fill="#000000" font-family="sans-serif" font-size="14" lengthAdjust="spacing" textLength="243.1816" x="1017.15" y="703.9228">+findAll() : Iterable&lt;AircraftModel&gt;</text></g><!--link AddPilotUI to AddPilotController--><g class="link" data-entity-1="AddPilotUI" data-entity-2="AddPilotController" data-source-line="71" data-uid="lnk14" id="link_AddPilotUI_AddPilotController"><path codeLine="71" d="M838,159.7083 C838,180.5083 838,201.1083 838,228.2283" fill="none" id="AddPilotUI-to-AddPilotController" style="stroke:#181818;stroke-width:1;stroke-dasharray:7,7;"/><polygon fill="#181818" points="838,234.2283,842,225.2283,838,229.2283,834,225.2283,838,234.2283" style="stroke:#181818;stroke-width:1;"/><text fill="#000000" font-family="sans-serif" font-size="13" lengthAdjust="spacing" textLength="28.5645" x="809" y="193.5366">uses</text></g><!--link AddPilotController to PilotRepository--><g class="link" data-entity-1="AddPilotController" data-entity-2="PilotRepository" data-source-line="72" data-uid="lnk15" id="link_AddPilotController_PilotRepository"><path codeLine="72" d="M838,496.9783 C838,537.7183 838,574.3383 838,606.5983" fill="none" id="AddPilotController-to-PilotRepository" style="stroke:#181818;stroke-width:1;stroke-dasharray:7,7;"/><polygon fill="#181818" points="838,612.5983,842,603.5983,838,607.5983,834,603.5983,838,612.5983" style="stroke:#181818;stroke-width:1;"/><text fill="#000000" font-family="sans-serif" font-size="13" lengthAdjust="spacing" textLength="28.5645" x="809" y="551.3566">uses</text></g><!--link AddPilotController to AircraftModelRepository--><g class="link" data-entity-1="AddPilotController" data-entity-2="AircraftModelRepository" data-source-line="73" data-uid="lnk16" id="link_AddPilotController_AircraftModelRepository"><path codeLine="73" d="M1032.99,496.9783 C1032.99,541.3483 1032.99,581.9483 1032.99,614.9683" fill="none" id="AddPilotController-to-AircraftModelRepository" style="stroke:#181818;stroke-width:1;stroke-dasharray:7,7;"/><polygon fill="#181818" points="1032.99,620.9683,1036.99,611.9683,1032.99,615.9683,1028.99,611.9683,1032.99,620.9683" style="stroke:#181818;stroke-width:1;"/><text fill="#000000" font-family="sans-serif" font-size="13" lengthAdjust="spacing" textLength="28.5645" x="1003.99" y="555.5466">uses</text></g><!--link AddPilotController to Pilot--><g class="link" data-entity-1="AddPilotController" data-entity-2="Pilot" data-source-line="74" data-uid="lnk17" id="link_AddPilotController_Pilot"><path codeLine="74" d="M632.44,497.2383 C632.44,547.2583 632.44,592.4283 632.44,592.4283 C632.44,592.4283 631.42,592.4283 619.9,592.4283" fill="none" id="AddPilotController-to-Pilot" style="stroke:#181818;stroke-width:1;stroke-dasharray:7,7;"/><polygon fill="#181818" points="613.9,592.4283,622.9,596.4283,618.9,592.4283,622.9,588.4283,613.9,592.4283" style="stroke:#181818;stroke-width:1;"/><text fill="#000000" font-family="sans-serif" font-size="13" lengthAdjust="spacing" textLength="45.1318" x="586.44" y="550.6666">creates</text></g><!--link Pilot to User--><g class="link" data-entity-1="Pilot" data-entity-2="User" data-source-line="76" data-uid="lnk18" id="link_Pilot_User"><path codeLine="76" d="M256.18,760.6283 C256.18,781.0283 256.18,795.8983 256.18,814.0483" fill="none" id="Pilot-to-User" style="stroke:#181818;stroke-width:1;"/><polygon fill="#181818" points="256.18,820.0483,260.18,811.0483,256.18,815.0483,252.18,811.0483,256.18,820.0483" style="stroke:#181818;stroke-width:1;"/><text fill="#000000" font-family="sans-serif" font-size="13" lengthAdjust="spacing" textLength="21.6772" x="257.18" y="786.9066">is a</text><text fill="#000000" font-family="sans-serif" font-size="13" lengthAdjust="spacing" textLength="8.2202" x="235.7223" y="781.0215">1</text><text fill="#000000" font-family="sans-serif" font-size="13" lengthAdjust="spacing" textLength="8.2202" x="260.7154" y="809.4631">1</text></g><!--link Pilot to IATACode--><g class="link" data-entity-1="Pilot" data-entity-2="IATACode" data-source-line="77" data-uid="lnk19" id="link_Pilot_IATACode"><path codeLine="77" d="M386,760.6283 C386,787.5383 386,809.2783 386,830.5083" fill="none" id="Pilot-to-IATACode" style="stroke:#181818;stroke-width:1;"/><polygon fill="#181818" points="386,836.5083,390,827.5083,386,831.5083,382,827.5083,386,836.5083" style="stroke:#181818;stroke-width:1;"/><text fill="#000000" font-family="sans-serif" font-size="13" lengthAdjust="spacing" textLength="128.0449" x="257" y="812.1366">belongs to company</text><text fill="#000000" font-family="sans-serif" font-size="13" lengthAdjust="spacing" textLength="8.2202" x="375.4816" y="781.0215">1</text><text fill="#000000" font-family="sans-serif" font-size="13" lengthAdjust="spacing" textLength="8.2202" x="377.3067" y="826.2001">1</text></g><!--link Pilot to AircraftModel--><g class="link" data-entity-1="Pilot" data-entity-2="AircraftModel" data-source-line="78" data-uid="lnk20" id="link_Pilot_AircraftModel"><path codeLine="78" d="M545.03,760.6283 C545.03,787.5383 545.03,809.2783 545.03,830.5083" fill="none" id="Pilot-to-AircraftModel" style="stroke:#181818;stroke-width:1;"/><polygon fill="#181818" points="545.03,836.5083,549.03,827.5083,545.03,831.5083,541.03,827.5083,545.03,836.5083" style="stroke:#181818;stroke-width:1;"/><text fill="#000000" font-family="sans-serif" font-size="13" lengthAdjust="spacing" textLength="74.001" x="546.03" y="780.1366">certified for</text><text fill="#000000" font-family="sans-serif" font-size="13" lengthAdjust="spacing" textLength="39.4824" x="563.2893" y="795.4472">(by id)</text><text fill="#000000" font-family="sans-serif" font-size="13" lengthAdjust="spacing" textLength="8.2202" x="546.6874" y="781.0215">1</text><text fill="#000000" font-family="sans-serif" font-size="13" lengthAdjust="spacing" textLength="22.7119" x="518.4672" y="826.2001">1..*</text></g><!--SRC=[ZLNBRjim4BphAnOwoVK3wQ4eO1W610S53BHfK3UtN2XfPREXIO6a4pX5_hrBIhOeMKwZY-JTsTTmk3PFN5PCipsO7IlK2vTRA9am69cp9nVCcDHQpRE3nNMkv8Q_8jm44C4bscE5eBJTgIYot0g4bGk4Myws3ZE5XytDro-G5WKmkET2sIYgMFx4jWZnlKQ3qZBBbOpXRmJq-C8Exy4FwyRidd6XDZlraenQomvPuVf8HZ273NKhjzxv5hq5TTAg4Zn_fynAIQkL4AY3SbDsiBlNEQJqKfg_-lWDwcUUOmkgNFmlhDIy7izz6cwLFhQOWq5TGnwQhpvYhmeKDIJbEjUij3zEfZusL_kAoUCP_LipQIewX5Nhk8mHWcLACpBNWQkUfHSnPa9qEZ6UuhL5pJA1Yuvl6OGrZ2PkPidsE86Ac7vHkfX0oRMnTzv8zDTVZnBtZ0iwEqBkbCIxmpv3zyErH8nFm0C8Q30_Q6wFAu4aG9bJ6bAZ42Or1etPavHkcNKfSzIMbnoBJflhmhWPQXLsJfaYdJwm25bfwFHp3z0SaAkHOckzqjJ9R3PpCUvxG8otYiRnEWo4w8DXiN2DsEC4s7QhSKjPGIjbbyjGbhoOmtVL2BqU8RVy6UUGAKNKoFOqsgEOG2ERDRDiHMoGuIf9RG9kKf_Rat2HdflLASStfHFMpLDtEHXujNHzZz4kN6WWgrxpjHRJtwdxqQBSe4cF-e1aP_qWnu4IEtkbTZRAlF2C3rL1-TmseID9Qjs6gXvTDdMQWXfxPk90spJxWtcldPm0lVqMRh6Gn0yEw1UEku3lhCrsBPos9fTq_qkMOt_NKTMphrDeR1Yfno_9vkPTNi5noMMH2j7TC1uJI42LwwAUBE61jdvMxYYO2F4DEsstLtRgzQx_L-pQ-XkSP03iYGx-v6QpvT2VqHn8qYOQyBY0_XcyZxx6mGTg4ARUSIQAQaFyEORfTEdV_bhD8UO6M3pWFokSC1aAejA0LQTzT1anctsAUvgcoFFAW5BfHvbaH-35A8x-0G00]--></g></svg>