<svg xmlns="http://www.w3.org/2000/svg" xmlns:xlink="http://www.w3.org/1999/xlink" contentStyleType="text/css" data-diagram-type="SEQUENCE" height="910px" preserveAspectRatio="none" style="width:1396px;height:910px;background:#FFFFFF;" version="1.1" viewBox="0 0 1396 910" width="1396px" zoomAndPan="magnify"><title>Aggregate: Simulation &#8212; Simulate flights in an area (US100)</title><defs/><g><text fill="#000000" font-family="sans-serif" font-size="14" font-weight="bold" lengthAdjust="spacing" textLength="433.0293" x="480.6262" y="28.5352">Aggregate: Simulation &#8212; Simulate flights in an area (US100)</text><g><title>.SimulationUI</title><rect fill="#FFFFFF" height="772.8047" style="stroke:#181818;stroke-width:1;" width="10" x="51.9292" y="83.9766"/></g><g><title>.SimulationController</title><rect fill="#FFFFFF" height="691.5625" style="stroke:#181818;stroke-width:1;" width="10" x="340.8911" y="135.9082"/></g><g><title>simulation.Simulation</title><rect fill="#FFFFFF" height="417.8359" style="stroke:#181818;stroke-width:1;" width="10" x="717.6328" y="321.7031"/></g><g><title>.SimulationRepository</title><rect fill="#FFFFFF" height="29.3105" style="stroke:#181818;stroke-width:1;" width="10" x="1290.5649" y="768.8496"/></g><rect fill="none" height="303.7266" style="stroke:#000000;stroke-width:1.5;" width="763.3574" x="621.9243" y="378.1914"/><rect fill="none" height="187.7949" style="stroke:#000000;stroke-width:1.5;" width="743.3574" x="631.9243" y="487.123"/><g><title>.SimulationUI</title><rect fill="#000000" fill-opacity="0.00000" height="800.8047" width="8" x="52.9292" y="73.9766"/><line style="stroke:#181818;stroke-width:0.5;stroke-dasharray:5,5;" x1="56" x2="56" y1="73.9766" y2="874.7813"/></g><g><title>.SimulationController</title><rect fill="#000000" fill-opacity="0.00000" height="800.8047" width="8" x="341.8911" y="73.9766"/><line style="stroke:#181818;stroke-width:0.5;stroke-dasharray:5,5;" x1="345.748" x2="345.748" y1="73.9766" y2="874.7813"/></g><g><title>simulation.Simulation</title><rect fill="#000000" fill-opacity="0.00000" height="698.5625" width="8" x="718.6328" y="176.2188"/><line style="stroke:#181818;stroke-width:0.5;stroke-dasharray:5,5;" x1="721.9243" x2="721.9243" y1="176.2188" y2="874.7813"/></g><g><title>report.SimulationReport</title><rect fill="#000000" fill-opacity="0.00000" height="514.334" width="8" x="924.3198" y="360.4473"/><line style="stroke:#181818;stroke-width:0.5;stroke-dasharray:5,5;" x1="927.791" x2="927.791" y1="360.4473" y2="874.7813"/></g><g><title>violation.SafetyViolation</title><rect fill="#000000" fill-opacity="0.00000" height="322.7266" width="8" x="1111.644" y="552.0547"/><line style="stroke:#181818;stroke-width:0.5;stroke-dasharray:5,5;" x1="1114.8486" x2="1114.8486" y1="552.0547" y2="874.7813"/></g><g><title>.SimulationRepository</title><rect fill="#000000" fill-opacity="0.00000" height="800.8047" width="8" x="1291.5649" y="73.9766"/><line style="stroke:#181818;stroke-width:0.5;stroke-dasharray:5,5;" x1="1295.4395" x2="1295.4395" y1="73.9766" y2="874.7813"/></g><g class="participant participant-head" data-participant="UI"><rect fill="#E2E2F0" height="30.4883" rx="2.5" ry="2.5" style="stroke:#181818;stroke-width:0.5;" width="103.8584" x="5" y="42.4883"/><text fill="#000000" font-family="sans-serif" font-size="14" lengthAdjust="spacing" textLength="89.8584" x="12" y="63.0234">:SimulationUI</text></g><g class="participant participant-tail" data-participant="UI"><rect fill="#E2E2F0" height="30.4883" rx="2.5" ry="2.5" style="stroke:#181818;stroke-width:0.5;" width="103.8584" x="5" y="873.7813"/><text fill="#000000" font-family="sans-serif" font-size="14" lengthAdjust="spacing" textLength="89.8584" x="12" y="894.3164">:SimulationUI</text></g><g class="participant participant-head" data-participant="CTRL"><rect fill="#E2E2F0" height="30.4883" rx="2.5" ry="2.5" style="stroke:#181818;stroke-width:0.5;" width="158.2861" x="266.748" y="42.4883"/><text fill="#000000" font-family="sans-serif" font-size="14" lengthAdjust="spacing" textLength="144.2861" x="273.748" y="63.0234">:SimulationController</text></g><g class="participant participant-tail" data-participant="CTRL"><rect fill="#E2E2F0" height="30.4883" rx="2.5" ry="2.5" style="stroke:#181818;stroke-width:0.5;" width="158.2861" x="266.748" y="873.7813"/><text fill="#000000" font-family="sans-serif" font-size="14" lengthAdjust="spacing" textLength="144.2861" x="273.748" y="894.3164">:SimulationController</text></g><g class="participant participant-tail" data-participant="SIM"><rect fill="#E2E2F0" height="30.4883" rx="2.5" ry="2.5" style="stroke:#181818;stroke-width:0.5;" width="161.417" x="641.9243" y="873.7813"/><text fill="#000000" font-family="sans-serif" font-size="14" lengthAdjust="spacing" textLength="147.417" x="648.9243" y="894.3164">simulation:Simulation</text></g><g class="participant participant-tail" data-participant="REPORT"><rect fill="#E2E2F0" height="30.4883" rx="2.5" ry="2.5" style="stroke:#181818;stroke-width:0.5;" width="177.0576" x="839.791" y="873.7813"/><text fill="#000000" font-family="sans-serif" font-size="14" lengthAdjust="spacing" textLength="163.0576" x="846.791" y="894.3164">report:SimulationReport</text></g><g class="participant participant-tail" data-participant="VIOLATION"><rect fill="#E2E2F0" height="30.4883" rx="2.5" ry="2.5" style="stroke:#181818;stroke-width:0.5;" width="177.5908" x="1026.8486" y="873.7813"/><text fill="#000000" font-family="sans-serif" font-size="14" lengthAdjust="spacing" textLength="163.5908" x="1033.8486" y="894.3164">violation:SafetyViolation</text></g><g class="participant participant-head" data-participant="REPO"><rect fill="#E2E2F0" height="30.4883" rx="2.5" ry="2.5" style="stroke:#181818;stroke-width:0.5;" width="162.251" x="1214.4395" y="42.4883"/><text fill="#000000" font-family="sans-serif" font-size="14" lengthAdjust="spacing" textLength="148.251" x="1221.4395" y="63.0234">:SimulationRepository</text></g><g class="participant participant-tail" data-participant="REPO"><rect fill="#E2E2F0" height="30.4883" rx="2.5" ry="2.5" style="stroke:#181818;stroke-width:0.5;" width="162.251" x="1214.4395" y="873.7813"/><text fill="#000000" font-family="sans-serif" font-size="14" lengthAdjust="spacing" textLength="148.251" x="1221.4395" y="894.3164">:SimulationRepository</text></g><g><title>.SimulationUI</title><rect fill="#FFFFFF" height="772.8047" style="stroke:#181818;stroke-width:1;" width="10" x="51.9292" y="83.9766"/></g><g><title>.SimulationController</title><rect fill="#FFFFFF" height="691.5625" style="stroke:#181818;stroke-width:1;" width="10" x="340.8911" y="135.9082"/></g><g><title>simulation.Simulation</title><rect fill="#FFFFFF" height="417.8359" style="stroke:#181818;stroke-width:1;" width="10" x="717.6328" y="321.7031"/></g><g><title>.SimulationRepository</title><rect fill="#FFFFFF" height="29.3105" style="stroke:#181818;stroke-width:1;" width="10" x="1290.5649" y="768.8496"/></g><g class="message" data-participant-1="UI" data-participant-2="CTRL"><polygon fill="#181818" points="328.8911,131.9082,338.8911,135.9082,328.8911,139.9082,332.8911,135.9082" style="stroke:#181818;stroke-width:1;"/><line style="stroke:#181818;stroke-width:1;" x1="61.9292" x2="334.8911" y1="135.9082" y2="135.9082"/><text fill="#000000" font-family="sans-serif" font-size="13" lengthAdjust="spacing" textLength="259.9619" x="68.9292" y="100.5449">runSimulation(areaCode, timeRangeStart,</text><text fill="#000000" font-family="sans-serif" font-size="13" lengthAdjust="spacing" textLength="157.7393" x="68.9292" y="115.8555">timeRangeEnd, timeStep,</text><text fill="#000000" font-family="sans-serif" font-size="13" lengthAdjust="spacing" textLength="153.3657" x="68.9292" y="131.166">safetyThreshold, flights)</text></g><g class="message" data-participant-1="CTRL" data-participant-2="SIM"><polygon fill="#181818" points="629.9243,176.5293,639.9243,180.5293,629.9243,184.5293,633.9243,180.5293" style="stroke:#181818;stroke-width:1;"/><line style="stroke:#181818;stroke-width:1;" x1="350.8911" x2="635.9243" y1="180.5293" y2="180.5293"/><text fill="#000000" font-family="sans-serif" font-size="13" lengthAdjust="spacing" textLength="210.4375" x="357.8911" y="160.4766">create(areaCode, timeRangeStart,</text><text fill="#000000" font-family="sans-serif" font-size="13" lengthAdjust="spacing" textLength="267.0332" x="357.8911" y="175.7871">timeRangeEnd, timeStep, safetyThreshold)</text></g><rect fill="#E2E2F0" height="30.4883" rx="2.5" ry="2.5" style="stroke:#181818;stroke-width:0.5;" width="161.417" x="641.9243" y="147.041"/><text fill="#000000" font-family="sans-serif" font-size="14" lengthAdjust="spacing" textLength="147.417" x="648.9243" y="167.5762">simulation:Simulation</text><path d="M727,193.5293 L727,294.5293 L969,294.5293 L969,203.5293 L959,193.5293 L727,193.5293" fill="#FEFFDD" style="stroke:#181818;stroke-width:0.5;"/><path d="M959,193.5293 L959,203.5293 L969,203.5293 L959,193.5293" fill="#FEFFDD" style="stroke:#181818;stroke-width:0.5;"/><text fill="#000000" font-family="sans-serif" font-size="13" lengthAdjust="spacing" textLength="187.7573" x="733" y="211.0977">Simulation enforces invariant:</text><text fill="#000000" font-family="sans-serif" font-size="13" lengthAdjust="spacing" textLength="197.666" x="733" y="226.4082">- timeRangeStart must precede</text><text fill="#000000" font-family="sans-serif" font-size="13" lengthAdjust="spacing" textLength="90.1113" x="741.2266" y="241.7188">timeRangeEnd</text><text fill="#000000" font-family="sans-serif" font-size="13" lengthAdjust="spacing" textLength="175.5254" x="733" y="257.0293">- timeStep must be positive</text><text fill="#000000" font-family="sans-serif" font-size="13" lengthAdjust="spacing" textLength="221.1904" x="733" y="272.3398">- safetyThreshold must be positive</text><text fill="#000000" font-family="sans-serif" font-size="13" lengthAdjust="spacing" textLength="168.1748" x="733" y="287.6504">- Status starts as PENDING</text><g class="message" data-participant-1="CTRL" data-participant-2="SIM"><polygon fill="#181818" points="705.6328,317.7031,715.6328,321.7031,705.6328,325.7031,709.6328,321.7031" style="stroke:#181818;stroke-width:1;"/><line style="stroke:#181818;stroke-width:1;" x1="350.8911" x2="711.6328" y1="321.7031" y2="321.7031"/><text fill="#000000" font-family="sans-serif" font-size="13" lengthAdjust="spacing" textLength="69.8687" x="357.8911" y="316.9609">run(flights)</text></g><g class="message" data-participant-1="SIM" data-participant-2="REPORT"><polygon fill="#181818" points="827.791,347.0137,837.791,351.0137,827.791,355.0137,831.791,351.0137" style="stroke:#181818;stroke-width:1;"/><line style="stroke:#181818;stroke-width:1;" x1="727.6328" x2="833.791" y1="351.0137" y2="351.0137"/><text fill="#000000" font-family="sans-serif" font-size="13" lengthAdjust="spacing" textLength="46.96" x="734.6328" y="346.2715">create()</text></g><rect fill="#E2E2F0" height="30.4883" rx="2.5" ry="2.5" style="stroke:#181818;stroke-width:0.5;" width="177.0576" x="839.791" y="329.7031"/><text fill="#000000" font-family="sans-serif" font-size="14" lengthAdjust="spacing" textLength="163.0576" x="846.791" y="350.2383">report:SimulationReport</text><path d="M621.9243,378.1914 L696.3711,378.1914 L696.3711,385.502 L686.3711,395.502 L621.9243,395.502 L621.9243,378.1914" fill="#EEEEEE" style="stroke:#000000;stroke-width:1.5;"/><rect fill="none" height="303.7266" style="stroke:#000000;stroke-width:1.5;" width="763.3574" x="621.9243" y="378.1914"/><text fill="#000000" font-family="sans-serif" font-size="13" font-weight="bold" lengthAdjust="spacing" textLength="29.4468" x="636.9243" y="391.7598">loop</text><text fill="#000000" font-family="sans-serif" font-size="11" font-weight="bold" lengthAdjust="spacing" textLength="111.1655" x="711.3711" y="390.8262">[for each time step]</text><g class="message" data-participant-1="SIM" data-participant-2="SIM"><line style="stroke:#181818;stroke-width:1;" x1="727.6328" x2="769.6328" y1="416.8125" y2="416.8125"/><line style="stroke:#181818;stroke-width:1;" x1="769.6328" x2="769.6328" y1="416.8125" y2="429.8125"/><line style="stroke:#181818;stroke-width:1;" x1="728.6328" x2="769.6328" y1="429.8125" y2="429.8125"/><polygon fill="#181818" points="738.6328,425.8125,728.6328,429.8125,738.6328,433.8125,734.6328,429.8125" style="stroke:#181818;stroke-width:1;"/><text fill="#000000" font-family="sans-serif" font-size="13" lengthAdjust="spacing" textLength="118.3394" x="734.6328" y="412.0703">advanceTimeStep()</text></g><g class="message" data-participant-1="SIM" data-participant-2="SIM"><line style="stroke:#181818;stroke-width:1;" x1="727.6328" x2="769.6328" y1="459.123" y2="459.123"/><line style="stroke:#181818;stroke-width:1;" x1="769.6328" x2="769.6328" y1="459.123" y2="472.123"/><line style="stroke:#181818;stroke-width:1;" x1="728.6328" x2="769.6328" y1="472.123" y2="472.123"/><polygon fill="#181818" points="738.6328,468.123,728.6328,472.123,738.6328,476.123,734.6328,472.123" style="stroke:#181818;stroke-width:1;"/><text fill="#000000" font-family="sans-serif" font-size="13" lengthAdjust="spacing" textLength="147.8433" x="734.6328" y="454.3809">detectSafetyViolations()</text></g><path d="M631.9243,487.123 L699.1094,487.123 L699.1094,494.4336 L689.1094,504.4336 L631.9243,504.4336 L631.9243,487.123" fill="#EEEEEE" style="stroke:#000000;stroke-width:1.5;"/><rect fill="none" height="187.7949" style="stroke:#000000;stroke-width:1.5;" width="743.3574" x="631.9243" y="487.123"/><text fill="#000000" font-family="sans-serif" font-size="13" font-weight="bold" lengthAdjust="spacing" textLength="22.1851" x="646.9243" y="500.6914">opt</text><text fill="#000000" font-family="sans-serif" font-size="11" font-weight="bold" lengthAdjust="spacing" textLength="109.9194" x="714.1094" y="499.7578">[violation detected]</text><g class="message" data-participant-1="SIM" data-participant-2="VIOLATION"><polygon fill="#181818" points="1014.8486,567.6758,1024.8486,571.6758,1014.8486,575.6758,1018.8486,571.6758" style="stroke:#181818;stroke-width:1;"/><line style="stroke:#181818;stroke-width:1;" x1="727.6328" x2="1020.8486" y1="571.6758" y2="571.6758"/><text fill="#000000" font-family="sans-serif" font-size="13" lengthAdjust="spacing" textLength="117.4888" x="734.6328" y="521.002">create(description,</text><text fill="#000000" font-family="sans-serif" font-size="13" lengthAdjust="spacing" textLength="181.543" x="734.6328" y="536.3125">flightDesignator, timestamp,</text><text fill="#000000" font-family="sans-serif" font-size="13" lengthAdjust="spacing" textLength="156.5586" x="734.6328" y="551.623">speed, heading, latitude,</text><text fill="#000000" font-family="sans-serif" font-size="13" lengthAdjust="spacing" textLength="120.396" x="734.6328" y="566.9336">longitude, altitude)</text></g><rect fill="#E2E2F0" height="30.4883" rx="2.5" ry="2.5" style="stroke:#181818;stroke-width:0.5;" width="177.5908" x="1026.8486" y="538.1875"/><text fill="#000000" font-family="sans-serif" font-size="14" lengthAdjust="spacing" textLength="163.5908" x="1033.8486" y="558.7227">violation:SafetyViolation</text><path d="M1120,584.6758 L1120,639.6758 L1365,639.6758 L1365,594.6758 L1355,584.6758 L1120,584.6758" fill="#FEFFDD" style="stroke:#181818;stroke-width:0.5;"/><path d="M1355,584.6758 L1355,594.6758 L1365,594.6758 L1355,584.6758" fill="#FEFFDD" style="stroke:#181818;stroke-width:0.5;"/><text fill="#000000" font-family="sans-serif" font-size="13" lengthAdjust="spacing" textLength="220.5874" x="1126" y="602.2441">SafetyViolation is a Value Object &#8212;</text><text fill="#000000" font-family="sans-serif" font-size="13" lengthAdjust="spacing" textLength="224.2817" x="1126" y="617.5547">immutable record of a safety event.</text><text fill="#000000" font-family="sans-serif" font-size="13" lengthAdjust="spacing" textLength="203.9375" x="1126" y="632.8652">Once recorded it never changes.</text><g class="message" data-participant-1="SIM" data-participant-2="REPORT"><polygon fill="#181818" points="916.3198,662.918,926.3198,666.918,916.3198,670.918,920.3198,666.918" style="stroke:#181818;stroke-width:1;"/><line style="stroke:#181818;stroke-width:1;" x1="727.6328" x2="922.3198" y1="666.918" y2="666.918"/><text fill="#000000" font-family="sans-serif" font-size="13" lengthAdjust="spacing" textLength="159.0977" x="734.6328" y="662.1758">recordViolation(violation)</text></g><g class="message" data-participant-1="SIM" data-participant-2="REPORT"><polygon fill="#181818" points="916.3198,706.2285,926.3198,710.2285,916.3198,714.2285,920.3198,710.2285" style="stroke:#181818;stroke-width:1;"/><line style="stroke:#181818;stroke-width:1;" x1="727.6328" x2="922.3198" y1="710.2285" y2="710.2285"/><text fill="#000000" font-family="sans-serif" font-size="13" lengthAdjust="spacing" textLength="176.687" x="734.6328" y="705.4863">finalise(totalFlights, passed)</text></g><g class="message" data-participant-1="SIM" data-participant-2="CTRL"><polygon fill="#181818" points="361.8911,735.5391,351.8911,739.5391,361.8911,743.5391,357.8911,739.5391" style="stroke:#181818;stroke-width:1;"/><line style="stroke:#181818;stroke-width:1;stroke-dasharray:2,2;" x1="355.8911" x2="721.6328" y1="739.5391" y2="739.5391"/><text fill="#000000" font-family="sans-serif" font-size="13" lengthAdjust="spacing" textLength="132.8247" x="367.8911" y="734.7969">completedSimulation</text></g><g class="message" data-participant-1="CTRL" data-participant-2="REPO"><polygon fill="#181818" points="1278.5649,764.8496,1288.5649,768.8496,1278.5649,772.8496,1282.5649,768.8496" style="stroke:#181818;stroke-width:1;"/><line style="stroke:#181818;stroke-width:1;" x1="350.8911" x2="1284.5649" y1="768.8496" y2="768.8496"/><text fill="#000000" font-family="sans-serif" font-size="13" lengthAdjust="spacing" textLength="102.4321" x="357.8911" y="764.1074">save(simulation)</text></g><g class="message" data-participant-1="REPO" data-participant-2="CTRL"><polygon fill="#181818" points="361.8911,794.1602,351.8911,798.1602,361.8911,802.1602,357.8911,798.1602" style="stroke:#181818;stroke-width:1;"/><line style="stroke:#181818;stroke-width:1;stroke-dasharray:2,2;" x1="355.8911" x2="1294.5649" y1="798.1602" y2="798.1602"/><text fill="#000000" font-family="sans-serif" font-size="13" lengthAdjust="spacing" textLength="102.5337" x="367.8911" y="793.418">savedSimulation</text></g><g class="message" data-participant-1="CTRL" data-participant-2="UI"><polygon fill="#181818" points="72.9292,823.4707,62.9292,827.4707,72.9292,831.4707,68.9292,827.4707" style="stroke:#181818;stroke-width:1;"/><line style="stroke:#181818;stroke-width:1;stroke-dasharray:2,2;" x1="66.9292" x2="344.8911" y1="827.4707" y2="827.4707"/><text fill="#000000" font-family="sans-serif" font-size="13" lengthAdjust="spacing" textLength="102.5337" x="78.9292" y="822.7285">savedSimulation</text></g><g class="message" data-participant-1="UI" data-participant-2="UI"><polygon fill="#181818" points="1383.2817,852.7813,1393.2817,856.7813,1383.2817,860.7813,1387.2817,856.7813" style="stroke:#181818;stroke-width:1;"/><line style="stroke:#181818;stroke-width:1;stroke-dasharray:2,2;" x1="56.9292" x2="1389.2817" y1="856.7813" y2="856.7813"/><text fill="#000000" font-family="sans-serif" font-size="13" lengthAdjust="spacing" textLength="164.4424" x="63.9292" y="852.0391">displays simulation report</text></g><!--SRC=[dLHDRzim3BtxLn0z9KKwTDSS1XHjDnZecY8VFVN2MeojJPOCIVRGstx4Vk5-oIZ9jHrttM613x7ro4S-Fj5zbxf1YpMu2eNv8NK9HrIEiinBhmYkoj9IYPxMi9Drgz1Be-7tpr-lhmH79SlAEv0Qa1zB28l3xkFbvJBBEBUNXMnGUpXRZnaE-HcWWqF-BkBQQ6-DKcGZydg_lJl5kW4wYOhONVxr56gfCTPFODlu8OAtjm-RxVuKtqdpcXcFv5yUNzzZn6E-kRlQvvlxTsiFwPtqnhuC55c6XPTTq8kRFkHmyIds16kmhHv35q6_QoDe1LxMj4LTqiupp-f93nzkjKZ7EqyD7xXOvRwov2gZ-AmVoN8aZVfbaP6PMQ7pSwOkcCpJVt32Z7APQSCiDj22ESOHmDGnf8_65XHSqg6LhDYQ0HSpGgXRvw6nL90WFWUOyWy1eOG4VIQ8KikEukcihB-3cCgt3bnWT6503xVtD_dzbuoqWD37YL1fGektaeOUmpd3aeccahBtbJ4DSDT0M5InRgQa9hRLnwNqA3hK1UtxpZZs3KIGfyBFtEXwf6ay39RjeIJYqIJHODjfcO9SOMKJ0ddOgSSRShBKoFPD0sUTwkYoXeWzK14ANXCh27o-PTSyQMLqcVu3glHrEV2VEcEyFJ3yPds1vAd08wgMOFFyZRi92sU2btNTUdpczSHECLQ4lDZF7gWZxJzCq1lMjWUI0Eb1CyH2KGLRkH4vJ7ycN1fki47CCPIv63HFlN9yS52MpUEEKgEIZXRUU5IVav5MqA1pn3SdmiTrK9YwKJn3CTwUJD29wmPx1WeESTZHOjo74u_6rHDH4uO0VoTxMbKfFGVmdledF6wLiCmOooQLhb7umZThlFTfzKvZUFtz0G00]--></g></svg>